<?xml version="1.0" encoding="utf-8"?>
<!-- Generator: Adobe Illustrator 25.0.1, SVG Export Plug-In . SVG Version: 6.00 Build 0)  -->
<svg version="1.1" id="Capa_1" xmlns="http://www.w3.org/2000/svg" xmlns:xlink="http://www.w3.org/1999/xlink" x="0px" y="0px"
	 viewBox="0 0 512 512" style="enable-background:new 0 0 512 512;" xml:space="preserve">
<style type="text/css">
	.st0{fill:#1761A0;}
</style>
<g>
	<g>
		<path class="st0" d="M480.6,424.1c-4.8-22-21.9-39.6-43.6-45.2V243.8l15,11.2c6.6,4.9,16,3.6,21-3l36-48c5-6.6,3.6-16.1-3-21
			l-54-40.3V45c0-8.3-6.7-15-15-15h-60c-8.3,0-15,6.7-15,15v30.4L265,3c-5.3-4-12.6-4-18,0L6,183c-6.6,5-8,14.4-3,21l36,48
			c5,6.6,14.3,8,21,3l15-11.2v135.1c-21.7,5.6-38.8,23.1-43.6,45.2C13.2,429.9,0,446.9,0,467c0,24.8,20.2,45,45,45h422
			c24.8,0,45-20.2,45-45C512,446.9,498.8,429.9,480.6,424.1L480.6,424.1z M392,60h30v60.3l-30-22.4V60z M54,222l-18-24L256,33.7
			L476,198l-18,24C438.3,207.3,269.9,81.6,265,78c-2.7-2-5.8-3-9-3s-6.3,1-9,3C63.3,215.1,55.1,221.3,54,222z M135,482H45
			c-8.3,0-15-6.7-15-15s6.7-15,15-15c8.3,0,15-6.7,15-15c0-16.5,13.5-30,30-30s30,13.5,30,30c0,8.3,6.7,15,15,15c8.3,0,15,6.7,15,15
			S143.3,482,135,482z M333.7,482H177.4c1.7-4.7,2.6-9.7,2.6-15c0-20.1-13.2-37.1-31.4-42.9c-4.8-22-21.9-39.6-43.6-45.2V221.4
			l151-112.7l151,112.7v157.5c-21.7,5.6-38.7,23.1-43.6,45.1c-18.2,5.6-32.4,22.5-32.4,43C331,472.2,331.9,477.2,333.7,482
			L333.7,482z M467,482h-90c-8.5,0-16-7-16-15s7.5-15,16-15c8.3,0,15-6.7,15-15c0-16.5,13.5-30,30-30s30,13.5,30,30
			c0,8.3,6.7,15,15,15c8.3,0,15,6.7,15,15S475.3,482,467,482z M293.8,238.5c-16.9,0-29.3,8.1-37.8,16.7
			c-8.5-8.7-20.9-16.7-37.8-16.7c-29.3,0-52.2,24.4-52.2,55.5c0,33.2,26.6,56,63.5,87.5c5.3,4.6,10.9,9.3,16.7,14.3
			c2.8,2.5,6.3,3.7,9.9,3.7c3.5,0,7-1.2,9.9-3.7c5.8-5,11.3-9.8,16.7-14.3C319.4,350,346,327.2,346,294
			C346,262.9,323.1,238.5,293.8,238.5z M263,358.7c-2.3,2-4.6,4-7,6c-2.4-2-4.7-4-7-6c-31.9-27.3-53-45.3-53-64.7
			c0-12.4,7.8-25.5,22.2-25.5c13.8,0,22.2,14.5,24.4,19c2.5,5.1,7.7,8.3,13.4,8.3c5.7,0,10.9-3.2,13.4-8.3c2.2-4.5,10.6-19,24.4-19
			c14.4,0,22.2,13.1,22.2,25.5C316,313.4,294.9,331.4,263,358.7L263,358.7z"/>
	</g>
</g>
</svg>
