<?xml version="1.0" encoding="utf-8"?>
<!-- Generator: Adobe Illustrator 25.0.1, SVG Export Plug-In . SVG Version: 6.00 Build 0)  -->
<svg version="1.1" id="Capa_1" xmlns="http://www.w3.org/2000/svg" xmlns:xlink="http://www.w3.org/1999/xlink" x="0px" y="0px"
	 viewBox="0 0 512 512" style="enable-background:new 0 0 512 512;" xml:space="preserve">
<style type="text/css">
	.st0{fill:#1761A0;}
</style>
<g>
	<g>
		<path class="st0" d="M121,211C54.3,211,0,264.8,0,331c0,81,106.7,173.5,111.2,177.4c2.8,2.4,6.3,3.6,9.8,3.6c3.5,0,7-1.2,9.8-3.7
			C135.3,504.4,241,411.9,241,331C241,264.8,187.2,211,121,211L121,211z M121,476.8C88.7,446.5,30,381.1,30,331
			c0-49.6,40.8-90,91-90c49.6,0,90,40.4,90,90C211,381.1,152.9,446.5,121,476.8z M121,271c-33.1,0-60,26.9-60,60s26.9,60,60,60
			s60-26.9,60-60S154.1,271,121,271z M121,361c-16.5,0-30-13.5-30-30s13.5-30,30-30s30,13.5,30,30S137.5,361,121,361z M377,211
			c4.2,0,8.1-1.7,11-4.8c29.6-31.8,64-96.1,64-131.2c0-41.4-33.6-75-75-75s-75,33.6-75,75c0,35.2,34.4,99.4,64,131.2
			C368.9,209.3,372.8,211,377,211z M377,30c24.8,0,45,20.2,45,45c0,19.3-20.6,65.6-45,97.6c-24.4-32.1-45-78.4-45-97.6
			C332,50.2,352.2,30,377,30z M392,75c0-8.3-6.7-15-15-15s-15,6.7-15,15s6.7,15,15,15S392,83.3,392,75z M422,196c0,8.3,6.7,15,15,15
			h30c8.3,0,15-6.7,15-15s-6.7-15-15-15h-30C428.7,181,422,187.7,422,196z M345.2,482h-59.5c-8.3,0-15,6.7-15,15s6.7,15,15,15h59.5
			c8.3,0,15-6.7,15-15S353.5,482,345.2,482L345.2,482z M453.9,472.6c-9.6,6.2-20.6,9.4-31.9,9.4h-17.2c-8.3,0-15,6.7-15,15
			s6.7,15,15,15H422c17.1,0,33.7-4.9,48.1-14.2c7-4.5,9-13.8,4.5-20.7C470.1,470.1,460.8,468.1,453.9,472.6z M434.3,362.3
			c8.1,1.7,16.1-3.5,17.7-11.6c1.7-8.1-3.5-16.1-11.6-17.7c-6-1.3-12.3-1.9-18.5-1.9h-44c-8.3,0-15,6.7-15,15s6.7,15,15,15h44
			C426.2,361,430.3,361.4,434.3,362.3L434.3,362.3z M497.7,372.4c-4.5-7-13.8-9-20.7-4.5c-7,4.5-9,13.8-4.5,20.7
			c6.2,9.7,9.5,20.9,9.5,32.4c0,4.5-0.5,9-1.5,13.3c-2.1,9.4,5,18.3,14.7,18.3c6.9,0,13.1-4.8,14.6-11.7c1.5-6.5,2.2-13.2,2.2-19.8
			C512,403.7,507.1,386.9,497.7,372.4L497.7,372.4z M314.2,358.3c7.9,2.5,16.3-2,18.8-9.9c2.4-7.9-2-16.3-9.9-18.8
			c-13-4-21.8-16.2-21.1-30.2c0.4-8.3-6-15.3-14.2-15.7c-8.2-0.4-15.3,6-15.7,14.2c-0.1,1-0.1,2-0.1,3.1
			C272,327.5,289,350.5,314.2,358.3z M332,241c-3.9,0-7.9,0.4-11.7,1.1c-8.1,1.6-13.4,9.5-11.8,17.6c1.6,8.1,9.5,13.4,17.6,11.8
			c1.9-0.4,3.9-0.6,5.9-0.6h50.7c8.3,0,15-6.7,15-15s-6.7-15-15-15L332,241L332,241z M467,241h-24.8c-8.3,0-15,6.7-15,15
			c0,8.3,6.7,15,15,15H467c17.8,0,34-10.6,41.2-26.9c3.3-7.6-0.1-16.4-7.7-19.8s-16.4,0.1-19.8,7.7C478.3,237.5,473,241,467,241
			L467,241z M226,482h-30c-8.3,0-15,6.7-15,15s6.7,15,15,15h30c8.3,0,15-6.7,15-15S234.3,482,226,482z"/>
	</g>
</g>
</svg>
