<?xml version="1.0" encoding="utf-8"?>
<!-- Generator: Adobe Illustrator 25.0.1, SVG Export Plug-In . SVG Version: 6.00 Build 0)  -->
<svg version="1.1" id="Capa_1" xmlns="http://www.w3.org/2000/svg" xmlns:xlink="http://www.w3.org/1999/xlink" x="0px" y="0px"
	 viewBox="0 0 512 512" style="enable-background:new 0 0 512 512;" xml:space="preserve">
<style type="text/css">
	.st0{fill:#1761A0;}
</style>
<g>
	<g>
		<path class="st0" d="M497,31H271V15c0-8.3-6.7-15-15-15s-15,6.7-15,15v16H15C6.7,31,0,37.7,0,46v300c0,8.3,6.7,15,15,15h226v68
			l-83.3,55.5c-6.9,4.6-8.8,13.9-4.2,20.8c4.6,6.9,13.9,8.8,20.8,4.2L241,465v32c0,8.3,6.7,15,15,15s15-6.7,15-15v-32l66.7,44.5
			c6.9,4.6,16.2,2.7,20.8-4.2c4.6-6.9,2.7-16.2-4.2-20.8L271,429v-68h226c8.3,0,15-6.7,15-15V46C512,37.7,505.3,31,497,31L497,31z
			 M482,331H30V61h452V331z M346,211c-24.8,0-45,20.2-45,45s20.2,45,45,45s45-20.2,45-45S370.8,211,346,211z M346,271
			c-8.3,0-15-6.7-15-15s6.7-15,15-15s15,6.7,15,15S354.3,271,346,271z M121,256v-30c0-8.3-6.7-15-15-15s-15,6.7-15,15v30
			c0,24.8,20.2,45,45,45h60c24.8,0,45-20.2,45-45v-90c0-8.3,6.7-15,15-15h143.8l-4.4,4.4c-5.9,5.9-5.9,15.4,0,21.2
			c5.9,5.9,15.4,5.9,21.2,0l30-30c5.8-5.8,5.9-15.3,0-21.2l-30-30c-5.9-5.9-15.4-5.9-21.2,0s-5.9,15.4,0,21.2l4.4,4.4H256
			c-24.8,0-45,20.2-45,45v90c0,8.3-6.7,15-15,15h-60C127.7,271,121,264.3,121,256L121,256z M76,151h15v15c0,8.3,6.7,15,15,15
			s15-6.7,15-15v-15h15c8.3,0,15-6.7,15-15s-6.7-15-15-15h-15v-15c0-8.3-6.7-15-15-15s-15,6.7-15,15v15H76c-8.3,0-15,6.7-15,15
			S67.7,151,76,151z"/>
	</g>
</g>
</svg>
