<?xml version="1.0" encoding="utf-8"?>
<!-- Generator: Adobe Illustrator 25.0.1, SVG Export Plug-In . SVG Version: 6.00 Build 0)  -->
<svg version="1.1" id="Capa_1" xmlns="http://www.w3.org/2000/svg" xmlns:xlink="http://www.w3.org/1999/xlink" x="0px" y="0px"
	 viewBox="0 0 512 512" style="enable-background:new 0 0 512 512;" xml:space="preserve">
<style type="text/css">
	.st0{fill:#1761A0;}
</style>
<g>
	<path class="st0" d="M210,512c115.8,0,210-94.2,210-210c0-52.5-19.4-100.6-51.3-137.4l14.6-14.6H437c4,0,7.8-1.6,10.6-4.4l60-60
		c4.3-4.3,5.6-10.7,3.3-16.3c-2.3-5.6-7.8-9.3-13.9-9.3h-45V15c0-6.1-3.7-11.5-9.3-13.9c-5.6-2.3-12.1-1-16.3,3.3l-60,60
		C363.6,67.2,362,71,362,75v53.8l-14.6,14.6C310.6,111.4,262.5,92,210,92C94.2,92,0,186.2,0,302S94.2,512,210,512z M392,81.2l30-30
		V75c0,8.3,6.7,15,15,15h23.8l-30,30H392V81.2z M210,122c44.2,0,84.8,16.1,116.2,42.6l-21.3,21.3C279,164.7,246,152,210,152
		c-82.7,0-150,67.3-150,150s67.3,150,150,150s150-67.3,150-150c0-36-12.7-69-33.9-94.9l21.3-21.3C373.9,217.2,390,257.8,390,302
		c0,99.3-80.7,180-180,180S30,401.3,30,302S110.7,122,210,122L210,122z M270,302c0,33.1-26.9,60-60,60s-60-26.9-60-60s26.9-60,60-60
		c11.1,0,21.5,3,30.5,8.3l-41.1,41.1c-5.9,5.9-5.9,15.4,0,21.2c5.9,5.9,15.4,5.9,21.2,0l41.1-41.1C267,280.5,270,290.9,270,302
		L270,302z M262.1,228.7C247.4,218.2,229.4,212,210,212c-49.6,0-90,40.4-90,90s40.4,90,90,90s90-40.4,90-90
		c0-19.4-6.2-37.4-16.7-52.1l21.4-21.4c15.8,20.3,25.2,45.9,25.2,73.5c0,66.2-53.8,120-120,120S90,368.2,90,302s53.8-120,120-120
		c27.7,0,53.2,9.4,73.5,25.2L262.1,228.7z"/>
</g>
</svg>
